# xmcd
#
# Track frame offsets: 
#        150
#        22572
#        41355
#        55082
#        76590
#        96242
#        109322
#        127027
#        146137
#        154927
#        163735
#        180990
#
# Disc length: 2539 seconds
#
# Revision: 3
# Processed by: cddbd v1.5.2PL0 Copyright (c) Steve Scherf et al.
# Submitted via: ExactAudioCopy v1.3
#
DISCID=8f09e90c
DTITLE=Johnny Cash - Ride This Train
DYEAR=1960
DGENRE=Country
TTITLE0=Loading Coal
TTITLE1=Slow Rider
TTITLE2=Lumberjack
TTITLE3=Dorraine of Ponchartrain
TTITLE4=Going to Memphis
TTITLE5=When Papa Played the Dobro
TTITLE6=Boss Jack
TTITLE7=Old Doc Brown
TTITLE8=Fable of Willie Brown
TTITLE9=Second Honeymoon
TTITLE10=Ballad of the Harpweaver
TTITLE11=Smiling Bill McCall
EXTD=
EXTT0=
EXTT1=
EXTT2=
EXTT3=
EXTT4=
EXTT5=
EXTT6=
EXTT7=
EXTT8=
EXTT9=
EXTT10=
EXTT11=
PLAYORDER=
